<svg id="svg_icon_timetable" xmlns="http://www.w3.org/2000/svg" xmlns:xlink="http://www.w3.org/1999/xlink"
	viewBox="0 0 100 100" style="enable-background;">
	<title>Timetable</title>
	<desc>SVG Icon designed by Jacob Issa</desc>
	<rect x="0" y="35" width="100" height="10" />
	<rect x="0" y="20" width="20" height="25" />
	<rect x="40" y="20" width="20" height="25" />
	<rect x="80" y="20" width="20" height="25" />
	<rect x="0" y="95" width="100" height="5" />
	<rect x="0" y="20" width="5" height="80" />
	<rect x="95" y="20" width="5" height="80" />
	<g transform="translate(20,0)">
		<rect x="0" y="0" width="5" height="40" />
		<rect x="15" y="0" width="5" height="40" />
		<rect x="0" y="0" width="20" height="5" />
	</g>
	<g transform="translate(60,0)">
		<rect x="0" y="0" width="5" height="40" />
		<rect x="15" y="0" width="5" height="40" />
		<rect x="0" y="0" width="20" height="5" />
	</g>
	<g transform="translate(5,45)">
		<rect x="9" y="6" width="18" height="16" />
		<rect x="36" y="6" width="18" height="16" />
		<rect x="63" y="6" width="18" height="16" />
		<rect x="9" y="28" width="18" height="16" />
		<rect x="36" y="28" width="18" height="16" />
		<rect x="63" y="28" width="18" height="16" />
	</g>
</svg>
