<?xml version="1.0" encoding="utf-8"?>
<svg version="1.1" id="Capa_1" x="0px" y="0px" viewBox="0 0 52 52" style="enable-background:new 0 0 52 52; fill: white;" xmlns="http://www.w3.org/2000/svg">
  <g>
    <path d="M26,0C11.664,0,0,11.663,0,26s11.664,26,26,26s26-11.663,26-26S40.336,0,26,0z M26,50C12.767,50,2,39.233,2,26 S12.767,2,26,2s24,10.767,24,24S39.233,50,26,50z"/>
    <path d="M 26 21.103 C 25.448 21.103 25 21.434 25 21.845 L 25 38.168 C 25 38.579 25.448 38.91 26 38.91 C 26.552 38.91 27 38.579 27 38.168 L 27 21.845 C 27 21.434 26.552 21.103 26 21.103 Z" style=""/>
    <path d="M 26 14.626 C 25.448 14.626 25 15.073 25 15.626 L 25 17.626 C 25 18.179 25.448 18.626 26 18.626 C 26.552 18.626 27 18.179 27 17.626 L 27 15.626 C 27 15.073 26.552 14.626 26 14.626 Z"/>
  </g>
  <g/>
  <g/>
  <g/>
  <g/>
  <g/>
  <g/>
  <g/>
  <g/>
  <g/>
  <g/>
  <g/>
  <g/>
  <g/>
  <g/>
  <g/>
</svg>